<svg width="1440" height="1744" viewBox="0 0 1440 1744" fill="none"
    xmlns="http://www.w3.org/2000/svg">
    <g style="mix-blend-mode:luminosity" opacity="0.05">
        <rect x="-1338.96" y="-1097.84" width="5653.89" height="20.0034" transform="rotate(30 -1338.96 -1097.84)" fill="#FFF0DE"/>
    </g>
    <g style="mix-blend-mode:luminosity" opacity="0.05">
        <rect x="-1338.96" y="-1134" width="5653.89" height="20.0034" transform="rotate(30 -1338.96 -1134)" fill="#FFF0DE"/>
    </g>
    <g style="mix-blend-mode:luminosity" opacity="0.05">
        <rect x="-1338.96" y="-1170.16" width="5653.89" height="20.0034" transform="rotate(30 -1338.96 -1170.16)" fill="#FFF0DE"/>
    </g>
    <g style="mix-blend-mode:luminosity" opacity="0.05">
        <rect x="-1338.96" y="-1206.33" width="5653.89" height="20.0034" transform="rotate(30 -1338.96 -1206.33)" fill="#FFF0DE"/>
    </g>
    <g style="mix-blend-mode:luminosity" opacity="0.05">
        <rect x="-1338.96" y="-1242.49" width="5653.89" height="20.0034" transform="rotate(30 -1338.96 -1242.49)" fill="#FFF0DE"/>
    </g>
    <g style="mix-blend-mode:luminosity" opacity="0.05">
        <rect x="-1338.96" y="-1278.66" width="5653.89" height="20.0034" transform="rotate(30 -1338.96 -1278.66)" fill="#FFF0DE"/>
    </g>
    <g style="mix-blend-mode:luminosity" opacity="0.05">
        <rect x="-1338.96" y="-1314.82" width="5653.89" height="20.0034" transform="rotate(30 -1338.96 -1314.82)" fill="#FFF0DE"/>
    </g>
    <g style="mix-blend-mode:luminosity" opacity="0.05">
        <rect x="-1338.96" y="-1350.98" width="5653.89" height="20.0034" transform="rotate(30 -1338.96 -1350.98)" fill="#FFF0DE"/>
    </g>
    <g style="mix-blend-mode:luminosity" opacity="0.05">
        <rect x="-1338.96" y="-1387.15" width="5653.89" height="20.0034" transform="rotate(30 -1338.96 -1387.15)" fill="#FFF0DE"/>
    </g>
    <g style="mix-blend-mode:luminosity" opacity="0.05">
        <rect x="-1338.96" y="-1423.31" width="5653.89" height="20.0034" transform="rotate(30 -1338.96 -1423.31)" fill="#FFF0DE"/>
    </g>
    <g style="mix-blend-mode:luminosity" opacity="0.05">
        <rect x="-1338.96" y="-1459.48" width="5653.89" height="20.0034" transform="rotate(30 -1338.96 -1459.48)" fill="#FFF0DE"/>
    </g>
    <g style="mix-blend-mode:luminosity" opacity="0.05">
        <rect x="-1338.96" y="-1495.64" width="5653.89" height="20.0034" transform="rotate(30 -1338.96 -1495.64)" fill="#FFF0DE"/>
    </g>
    <g style="mix-blend-mode:luminosity" opacity="0.05">
        <rect x="-1338.96" y="-1531.8" width="5653.89" height="20.0034" transform="rotate(30 -1338.96 -1531.8)" fill="#FFF0DE"/>
    </g>
    <g style="mix-blend-mode:luminosity" opacity="0.05">
        <rect x="-1338.96" y="-1567.97" width="5653.89" height="20.0034" transform="rotate(30 -1338.96 -1567.97)" fill="#FFF0DE"/>
    </g>
</svg>
